<?xml version="1.0" encoding="utf-8"?>
<!-- Generator: Adobe Illustrator 16.0.0, SVG Export Plug-In . SVG Version: 6.00 Build 0)  -->
<!DOCTYPE svg PUBLIC "-//W3C//DTD SVG 1.1//EN" "http://www.w3.org/Graphics/SVG/1.1/DTD/svg11.dtd">
<svg version="1.1" id="Capa_1" xmlns="http://www.w3.org/2000/svg" xmlns:xlink="http://www.w3.org/1999/xlink" x="0px" y="0px"
	 width="80px" height="80px" viewBox="0 0 80 80" enable-background="new 0 0 80 80" xml:space="preserve">
<circle fill="none" stroke="#5D5D5D" stroke-width="2" stroke-miterlimit="10" cx="1033.039" cy="-100.257" r="22.216"/>
<g>
	<path fill="#5D5D5D" d="M1041.952-106.891h-1.492v-5.805c0-0.497-0.414-0.829-0.829-0.829h-13.267c-0.415,0-0.83,0.332-0.83,0.829
		v5.805h-1.492c-2.404,0-4.312,1.99-4.312,4.312v7.048c0,2.405,1.907,4.395,4.312,4.395h1.492v3.317c0,0.497,0.415,0.829,0.83,0.829
		h13.267c0.415,0,0.829-0.332,0.829-0.829v-3.317h1.492c2.404,0,4.395-1.989,4.395-4.395v-7.048
		C1046.264-104.983,1044.356-106.891,1041.952-106.891z M1027.192-111.865h11.609v4.975h-11.609V-111.865z M1038.801-88.648h-11.609
		v-5.805h11.609V-88.648z M1044.606-95.531c0,1.493-1.244,2.736-2.736,2.736h-1.493v-1.658h1.658c0.415,0,0.829-0.331,0.829-0.829
		c0-0.497-0.414-0.829-0.829-0.829h-18.241c-0.415,0-0.83,0.332-0.83,0.829c0,0.498,0.415,0.829,0.83,0.829h1.658v1.658h-1.41
		c-1.492,0-2.653-1.243-2.653-2.736v-7.048c0-1.492,1.243-2.653,2.653-2.653h17.828c1.492,0,2.736,1.161,2.736,2.653V-95.531
		L1044.606-95.531z"/>
	<path fill="#5D5D5D" d="M1040.459-103.574c-1.41,0-2.488,1.078-2.488,2.488c0,1.409,1.078,2.487,2.488,2.487
		s2.488-1.078,2.488-2.487C1042.948-102.496,1041.87-103.574,1040.459-103.574z M1040.459-100.257c-0.498,0-0.829-0.332-0.829-0.829
		c0-0.498,0.331-0.83,0.829-0.83s0.829,0.332,0.829,0.83C1041.289-100.589,1040.874-100.257,1040.459-100.257z"/>
	<path fill="#5D5D5D" d="M1029.68-90.722h6.633c0.498,0,0.83-0.332,0.83-0.829s-0.332-0.829-0.83-0.829h-6.633
		c-0.498,0-0.829,0.332-0.829,0.829S1029.182-90.722,1029.68-90.722z"/>
</g>
<g>
	<circle fill="#D95032" cx="40" cy="40" r="39.722"/>
	<g>
		<g>
			<path fill="#FFFFFF" d="M30.953,61.025C19.15,61.025,9.546,51.594,9.546,40c0-11.594,9.604-21.025,21.407-21.025
				c5.163,0,10.149,1.833,14.042,5.157l-5.444,6.146c-2.381-2.035-5.435-3.157-8.598-3.157c-7.232,0-13.115,5.778-13.115,12.88
				c0,7.101,5.883,12.879,13.115,12.879c6.119,0,10.123-2.933,11.425-8.192H31.055v-8.142H51.13v4.072
				C51.13,52.822,43.021,61.025,30.953,61.025z"/>
		</g>
		<polygon fill="#FFFFFF" points="73.474,36.548 67.268,36.548 67.268,30.341 62.303,30.341 62.303,36.548 56.095,36.548 
			56.095,41.513 62.303,41.513 62.303,47.718 67.268,47.718 67.268,41.513 73.474,41.513 		"/>
	</g>
</g>
</svg>
